<?plantuml 1.2026.2?><svg xmlns="http://www.w3.org/2000/svg" xmlns:xlink="http://www.w3.org/1999/xlink" contentStyleType="text/css" data-diagram-type="SEQUENCE" height="306px" preserveAspectRatio="none" style="width:330px;height:306px;background:#FFFFFF;" version="1.1" viewBox="0 0 330 306" width="330px" zoomAndPan="magnify"><defs/><g><g class="participant-lifeline" data-entity-uid="part1" data-qualified-name="User" id="part1-lifeline"><g><title>User</title><rect fill="#000000" fill-opacity="0.00000" height="141.4063" width="8" x="18.7793" y="82.6094"/><line style="stroke:#181818;stroke-width:0.5;stroke-dasharray:5,5;" x1="22" x2="22" y1="82.6094" y2="224.0156"/></g></g><g class="participant-lifeline" data-entity-uid="part2" data-qualified-name="Marcel" id="part2-lifeline"><g><title>Marcel</title><rect fill="#000000" fill-opacity="0.00000" height="141.4063" width="8" x="165.9619" y="82.6094"/><line style="stroke:#181818;stroke-width:0.5;stroke-dasharray:5,5;" x1="169.9585" x2="169.9585" y1="82.6094" y2="224.0156"/></g></g><g class="participant-lifeline" data-entity-uid="part3" data-qualified-name="CodexTime" id="part3-lifeline"><g><title>CodexTime</title><rect fill="#000000" fill-opacity="0.00000" height="141.4063" width="8" x="277.3501" y="82.6094"/><line style="stroke:#181818;stroke-width:0.5;stroke-dasharray:5,5;" x1="280.5605" x2="280.5605" y1="82.6094" y2="224.0156"/></g></g><g class="participant participant-head" data-entity-uid="part1" data-qualified-name="User" id="part1-head"><text fill="#000000" font-family="sans-serif" font-size="14" lengthAdjust="spacing" textLength="29.5586" x="5" y="79.5332">User</text><ellipse cx="22.7793" cy="13.5" fill="#E2E2F0" rx="8" ry="8" style="stroke:#181818;stroke-width:0.5;"/><path d="M22.7793,21.5 L22.7793,48.5 M9.7793,29.5 L35.7793,29.5 M22.7793,48.5 L9.7793,63.5 M22.7793,48.5 L35.7793,63.5" fill="none" style="stroke:#181818;stroke-width:0.5;"/></g><g class="participant participant-tail" data-entity-uid="part1" data-qualified-name="User" id="part1-tail"><text fill="#000000" font-family="sans-serif" font-size="14" lengthAdjust="spacing" textLength="29.5586" x="5" y="237.5488">User</text><ellipse cx="22.7793" cy="249.125" fill="#E2E2F0" rx="8" ry="8" style="stroke:#181818;stroke-width:0.5;"/><path d="M22.7793,257.125 L22.7793,284.125 M9.7793,265.125 L35.7793,265.125 M22.7793,284.125 L9.7793,299.125 M22.7793,284.125 L35.7793,299.125" fill="none" style="stroke:#181818;stroke-width:0.5;"/></g><g class="participant participant-head" data-entity-uid="part2" data-qualified-name="Marcel" id="part2-head"><rect fill="#E2E2F0" height="31.6094" rx="2.5" ry="2.5" style="stroke:#181818;stroke-width:0.5;" width="56.0068" x="141.9585" y="50"/><text fill="#000000" font-family="sans-serif" font-size="14" lengthAdjust="spacing" textLength="42.0068" x="148.9585" y="71.5332">Marcel</text></g><g class="participant participant-tail" data-entity-uid="part2" data-qualified-name="Marcel" id="part2-tail"><rect fill="#E2E2F0" height="31.6094" rx="2.5" ry="2.5" style="stroke:#181818;stroke-width:0.5;" width="56.0068" x="141.9585" y="223.0156"/><text fill="#000000" font-family="sans-serif" font-size="14" lengthAdjust="spacing" textLength="42.0068" x="148.9585" y="244.5488">Marcel</text></g><g class="participant participant-head" data-entity-uid="part3" data-qualified-name="CodexTime" id="part3-head"><rect fill="#E2E2F0" height="31.6094" rx="2.5" ry="2.5" style="stroke:#181818;stroke-width:0.5;" width="85.5791" x="238.5605" y="50"/><text fill="#000000" font-family="sans-serif" font-size="14" lengthAdjust="spacing" textLength="71.5791" x="245.5605" y="71.5332">CodexTime</text></g><g class="participant participant-tail" data-entity-uid="part3" data-qualified-name="CodexTime" id="part3-tail"><rect fill="#E2E2F0" height="31.6094" rx="2.5" ry="2.5" style="stroke:#181818;stroke-width:0.5;" width="85.5791" x="238.5605" y="223.0156"/><text fill="#000000" font-family="sans-serif" font-size="14" lengthAdjust="spacing" textLength="71.5791" x="245.5605" y="244.5488">CodexTime</text></g><g class="message" data-entity-1="part1" data-entity-2="part2" id="msg1"><polygon fill="#181818" points="157.9619,110.9609,167.9619,114.9609,157.9619,118.9609,161.9619,114.9609" style="stroke:#181818;stroke-width:1;"/><line style="stroke:#181818;stroke-width:1;" x1="22.7793" x2="163.9619" y1="114.9609" y2="114.9609"/><text fill="#000000" font-family="sans-serif" font-size="13" lengthAdjust="spacing" textLength="123.1826" x="29.7793" y="110.1045">demande d'ex&#233;cution</text></g><g class="message" data-entity-1="part2" data-entity-2="part3" id="msg2"><polygon fill="#181818" points="269.3501,141.3125,279.3501,145.3125,269.3501,149.3125,273.3501,145.3125" style="stroke:#181818;stroke-width:1;"/><line style="stroke:#181818;stroke-width:1;" x1="169.9619" x2="275.3501" y1="145.3125" y2="145.3125"/><text fill="#000000" font-family="sans-serif" font-size="13" lengthAdjust="spacing" textLength="87.3882" x="176.9619" y="140.4561">startWorkflow()</text></g><g class="message" data-entity-1="part3" data-entity-2="part2" id="msg3"><polygon fill="#181818" points="180.9619,171.6641,170.9619,175.6641,180.9619,179.6641,176.9619,175.6641" style="stroke:#181818;stroke-width:1;"/><line style="stroke:#181818;stroke-width:1;stroke-dasharray:2,2;" x1="174.9619" x2="280.3501" y1="175.6641" y2="175.6641"/><text fill="#000000" font-family="sans-serif" font-size="13" lengthAdjust="spacing" textLength="42.6309" x="186.9619" y="170.8076">r&#233;sultat</text></g><g class="message" data-entity-1="part2" data-entity-2="part1" id="msg4"><polygon fill="#181818" points="33.7793,202.0156,23.7793,206.0156,33.7793,210.0156,29.7793,206.0156" style="stroke:#181818;stroke-width:1;"/><line style="stroke:#181818;stroke-width:1;stroke-dasharray:2,2;" x1="27.7793" x2="168.9619" y1="206.0156" y2="206.0156"/><text fill="#000000" font-family="sans-serif" font-size="13" lengthAdjust="spacing" textLength="93.209" x="39.7793" y="201.1592">retour utilisateur</text></g><?plantuml-src LOqn3i8m34NtdCBg0WozG0SMPZOGivKOAIADAySHlLBFqOireIY2pTRx_tsqoWBtH68c5FNMJnWLkYkAfT019jZFVtnXH_FDZ_H9jC-OQeB-_2qDu6Z4w0ZSWUPriLazHxF36clD0PAMWGVBwnduVJoPXg3_yScwf1mKjKaAhAC5aN8MA1F19rJAiW40?></g></svg>